<mxfile host="app.diagrams.net" modified="2023-10-19T15:53:45.970Z" agent="Mozilla/5.0 (Windows NT 10.0; Win64; x64) AppleWebKit/537.36 (KHTML, like Gecko) Chrome/116.0.5845.888 YaBrowser/23.9.2.888 Yowser/2.5 Safari/537.36" etag="8fM-2CrLp-3ma8LMsdwL" version="22.0.5" type="device">
  <diagram name="Страница — 1" id="LdFohGadTlpcjPGjuA8_">
    <mxGraphModel dx="2213" dy="767" grid="1" gridSize="10" guides="1" tooltips="1" connect="1" arrows="1" fold="1" page="1" pageScale="1" pageWidth="827" pageHeight="1169" math="0" shadow="0">
      <root>
        <mxCell id="0" />
        <mxCell id="1" parent="0" />
        <mxCell id="8gnPzo72ejO8dxDTl0eF-1" value="Пользователь" style="rounded=0;whiteSpace=wrap;html=1;" vertex="1" parent="1">
          <mxGeometry x="190" y="190" width="120" height="60" as="geometry" />
        </mxCell>
        <mxCell id="8gnPzo72ejO8dxDTl0eF-2" value="Номер" style="rounded=0;whiteSpace=wrap;html=1;" vertex="1" parent="1">
          <mxGeometry x="50" y="190" width="120" height="60" as="geometry" />
        </mxCell>
        <mxCell id="8gnPzo72ejO8dxDTl0eF-3" value="" style="endArrow=none;html=1;rounded=0;exitX=1;exitY=0.5;exitDx=0;exitDy=0;entryX=0;entryY=0.5;entryDx=0;entryDy=0;" edge="1" parent="1" source="8gnPzo72ejO8dxDTl0eF-2" target="8gnPzo72ejO8dxDTl0eF-1">
          <mxGeometry width="50" height="50" relative="1" as="geometry">
            <mxPoint x="390" y="420" as="sourcePoint" />
            <mxPoint x="440" y="370" as="targetPoint" />
          </mxGeometry>
        </mxCell>
        <mxCell id="8gnPzo72ejO8dxDTl0eF-4" value="Пост" style="rounded=0;whiteSpace=wrap;html=1;" vertex="1" parent="1">
          <mxGeometry x="460" y="190" width="120" height="60" as="geometry" />
        </mxCell>
        <mxCell id="8gnPzo72ejO8dxDTl0eF-5" value="Номер" style="rounded=0;whiteSpace=wrap;html=1;" vertex="1" parent="1">
          <mxGeometry x="620" y="190" width="120" height="60" as="geometry" />
        </mxCell>
        <mxCell id="8gnPzo72ejO8dxDTl0eF-6" value="Дата размещения" style="rounded=0;whiteSpace=wrap;html=1;" vertex="1" parent="1">
          <mxGeometry x="620" y="270" width="120" height="60" as="geometry" />
        </mxCell>
        <mxCell id="8gnPzo72ejO8dxDTl0eF-7" value="Количество просмотров" style="rounded=0;whiteSpace=wrap;html=1;" vertex="1" parent="1">
          <mxGeometry x="620" y="110" width="120" height="60" as="geometry" />
        </mxCell>
        <mxCell id="8gnPzo72ejO8dxDTl0eF-8" value="" style="endArrow=none;html=1;rounded=0;entryX=0;entryY=0.5;entryDx=0;entryDy=0;exitX=1;exitY=0.5;exitDx=0;exitDy=0;" edge="1" parent="1" source="8gnPzo72ejO8dxDTl0eF-4" target="8gnPzo72ejO8dxDTl0eF-7">
          <mxGeometry width="50" height="50" relative="1" as="geometry">
            <mxPoint x="390" y="420" as="sourcePoint" />
            <mxPoint x="440" y="370" as="targetPoint" />
          </mxGeometry>
        </mxCell>
        <mxCell id="8gnPzo72ejO8dxDTl0eF-9" value="" style="endArrow=none;html=1;rounded=0;entryX=0;entryY=0.5;entryDx=0;entryDy=0;exitX=1;exitY=0.5;exitDx=0;exitDy=0;" edge="1" parent="1" source="8gnPzo72ejO8dxDTl0eF-4" target="8gnPzo72ejO8dxDTl0eF-5">
          <mxGeometry width="50" height="50" relative="1" as="geometry">
            <mxPoint x="390" y="420" as="sourcePoint" />
            <mxPoint x="440" y="370" as="targetPoint" />
          </mxGeometry>
        </mxCell>
        <mxCell id="8gnPzo72ejO8dxDTl0eF-10" value="" style="endArrow=none;html=1;rounded=0;entryX=0;entryY=0.5;entryDx=0;entryDy=0;exitX=1;exitY=0.5;exitDx=0;exitDy=0;" edge="1" parent="1" source="8gnPzo72ejO8dxDTl0eF-4" target="8gnPzo72ejO8dxDTl0eF-6">
          <mxGeometry width="50" height="50" relative="1" as="geometry">
            <mxPoint x="390" y="420" as="sourcePoint" />
            <mxPoint x="440" y="370" as="targetPoint" />
          </mxGeometry>
        </mxCell>
        <mxCell id="8gnPzo72ejO8dxDTl0eF-11" value="Лайк" style="rounded=0;whiteSpace=wrap;html=1;" vertex="1" parent="1">
          <mxGeometry x="570" y="540" width="120" height="60" as="geometry" />
        </mxCell>
        <mxCell id="8gnPzo72ejO8dxDTl0eF-12" value="Номер" style="rounded=0;whiteSpace=wrap;html=1;" vertex="1" parent="1">
          <mxGeometry x="710" y="540" width="120" height="60" as="geometry" />
        </mxCell>
        <mxCell id="8gnPzo72ejO8dxDTl0eF-13" value="" style="endArrow=none;html=1;rounded=0;entryX=0;entryY=0.5;entryDx=0;entryDy=0;exitX=1;exitY=0.5;exitDx=0;exitDy=0;" edge="1" parent="1" source="8gnPzo72ejO8dxDTl0eF-11" target="8gnPzo72ejO8dxDTl0eF-12">
          <mxGeometry width="50" height="50" relative="1" as="geometry">
            <mxPoint x="560" y="520" as="sourcePoint" />
            <mxPoint x="610" y="470" as="targetPoint" />
          </mxGeometry>
        </mxCell>
        <mxCell id="8gnPzo72ejO8dxDTl0eF-14" value="Комментарий" style="rounded=0;whiteSpace=wrap;html=1;" vertex="1" parent="1">
          <mxGeometry x="90" y="625" width="120" height="60" as="geometry" />
        </mxCell>
        <mxCell id="8gnPzo72ejO8dxDTl0eF-15" value="Номер" style="rounded=0;whiteSpace=wrap;html=1;" vertex="1" parent="1">
          <mxGeometry x="-70" y="585" width="120" height="60" as="geometry" />
        </mxCell>
        <mxCell id="8gnPzo72ejO8dxDTl0eF-16" value="Размер" style="rounded=0;whiteSpace=wrap;html=1;" vertex="1" parent="1">
          <mxGeometry x="-70" y="665" width="120" height="60" as="geometry" />
        </mxCell>
        <mxCell id="8gnPzo72ejO8dxDTl0eF-17" value="" style="endArrow=none;html=1;rounded=0;exitX=1;exitY=0.5;exitDx=0;exitDy=0;entryX=0;entryY=0.5;entryDx=0;entryDy=0;" edge="1" parent="1" source="8gnPzo72ejO8dxDTl0eF-15" target="8gnPzo72ejO8dxDTl0eF-14">
          <mxGeometry width="50" height="50" relative="1" as="geometry">
            <mxPoint x="240" y="605" as="sourcePoint" />
            <mxPoint x="290" y="555" as="targetPoint" />
          </mxGeometry>
        </mxCell>
        <mxCell id="8gnPzo72ejO8dxDTl0eF-18" value="" style="endArrow=none;html=1;rounded=0;exitX=1;exitY=0.5;exitDx=0;exitDy=0;entryX=0.017;entryY=0.4;entryDx=0;entryDy=0;entryPerimeter=0;" edge="1" parent="1" source="8gnPzo72ejO8dxDTl0eF-16" target="8gnPzo72ejO8dxDTl0eF-14">
          <mxGeometry width="50" height="50" relative="1" as="geometry">
            <mxPoint x="240" y="605" as="sourcePoint" />
            <mxPoint x="290" y="555" as="targetPoint" />
          </mxGeometry>
        </mxCell>
        <mxCell id="8gnPzo72ejO8dxDTl0eF-19" value="" style="endArrow=none;html=1;rounded=0;exitX=1;exitY=0.5;exitDx=0;exitDy=0;entryX=0;entryY=0.5;entryDx=0;entryDy=0;" edge="1" parent="1" source="8gnPzo72ejO8dxDTl0eF-1" target="8gnPzo72ejO8dxDTl0eF-4">
          <mxGeometry width="50" height="50" relative="1" as="geometry">
            <mxPoint x="450" y="420" as="sourcePoint" />
            <mxPoint x="500" y="370" as="targetPoint" />
          </mxGeometry>
        </mxCell>
        <mxCell id="8gnPzo72ejO8dxDTl0eF-20" value="&lt;font style=&quot;font-size: 14px;&quot;&gt;Один ко многим. Кажды пользователь может иметь много постов, но каждый пост имеет одного пользователя(автора)&lt;/font&gt;" style="text;html=1;strokeColor=none;fillColor=none;align=center;verticalAlign=middle;whiteSpace=wrap;rounded=0;" vertex="1" parent="1">
          <mxGeometry x="280" y="130" width="230" height="30" as="geometry" />
        </mxCell>
        <mxCell id="8gnPzo72ejO8dxDTl0eF-21" value="" style="endArrow=none;html=1;rounded=0;exitX=1;exitY=0.5;exitDx=0;exitDy=0;entryX=0.5;entryY=1;entryDx=0;entryDy=0;" edge="1" parent="1" source="8gnPzo72ejO8dxDTl0eF-14" target="8gnPzo72ejO8dxDTl0eF-4">
          <mxGeometry width="50" height="50" relative="1" as="geometry">
            <mxPoint x="450" y="430" as="sourcePoint" />
            <mxPoint x="500" y="380" as="targetPoint" />
          </mxGeometry>
        </mxCell>
        <mxCell id="8gnPzo72ejO8dxDTl0eF-22" value="&lt;font style=&quot;font-size: 14px;&quot;&gt;Один ко многим. Каждый пост может иметь много комментариев, но каждый комментарий имеет один пост&lt;/font&gt;" style="text;html=1;strokeColor=none;fillColor=none;align=center;verticalAlign=middle;whiteSpace=wrap;rounded=0;" vertex="1" parent="1">
          <mxGeometry x="170" y="450" width="170" height="30" as="geometry" />
        </mxCell>
        <mxCell id="8gnPzo72ejO8dxDTl0eF-23" value="" style="endArrow=none;html=1;rounded=0;entryX=0.5;entryY=0;entryDx=0;entryDy=0;exitX=0.5;exitY=1;exitDx=0;exitDy=0;" edge="1" parent="1" source="8gnPzo72ejO8dxDTl0eF-4" target="8gnPzo72ejO8dxDTl0eF-11">
          <mxGeometry width="50" height="50" relative="1" as="geometry">
            <mxPoint x="450" y="450" as="sourcePoint" />
            <mxPoint x="500" y="400" as="targetPoint" />
          </mxGeometry>
        </mxCell>
        <mxCell id="8gnPzo72ejO8dxDTl0eF-24" value="&lt;font style=&quot;font-size: 14px;&quot;&gt;Один ко многим. Каждый пост может иметь много лайков, но у каждого лайка свой конкретный пост.&lt;/font&gt;" style="text;html=1;strokeColor=none;fillColor=none;align=center;verticalAlign=middle;whiteSpace=wrap;rounded=0;" vertex="1" parent="1">
          <mxGeometry x="630" y="390" width="180" height="30" as="geometry" />
        </mxCell>
        <mxCell id="8gnPzo72ejO8dxDTl0eF-25" value="" style="endArrow=none;html=1;rounded=0;exitX=1;exitY=0.5;exitDx=0;exitDy=0;entryX=0;entryY=0.5;entryDx=0;entryDy=0;" edge="1" parent="1" source="8gnPzo72ejO8dxDTl0eF-14" target="8gnPzo72ejO8dxDTl0eF-11">
          <mxGeometry width="50" height="50" relative="1" as="geometry">
            <mxPoint x="450" y="460" as="sourcePoint" />
            <mxPoint x="500" y="410" as="targetPoint" />
          </mxGeometry>
        </mxCell>
        <mxCell id="8gnPzo72ejO8dxDTl0eF-26" value="&lt;font style=&quot;font-size: 14px;&quot;&gt;Один ко многим. Каждый комментарий может иметь много лайков, но у каждого лайка свой конкретный комментарий.&lt;/font&gt;" style="text;html=1;strokeColor=none;fillColor=none;align=center;verticalAlign=middle;whiteSpace=wrap;rounded=0;" vertex="1" parent="1">
          <mxGeometry x="360" y="645" width="220" height="30" as="geometry" />
        </mxCell>
        <mxCell id="8gnPzo72ejO8dxDTl0eF-27" value="" style="endArrow=none;html=1;rounded=0;exitX=0.5;exitY=0;exitDx=0;exitDy=0;" edge="1" parent="1" source="8gnPzo72ejO8dxDTl0eF-14">
          <mxGeometry width="50" height="50" relative="1" as="geometry">
            <mxPoint x="450" y="360" as="sourcePoint" />
            <mxPoint x="110" y="430" as="targetPoint" />
          </mxGeometry>
        </mxCell>
        <mxCell id="8gnPzo72ejO8dxDTl0eF-28" value="" style="endArrow=none;html=1;rounded=0;entryX=0.5;entryY=1;entryDx=0;entryDy=0;" edge="1" parent="1" target="8gnPzo72ejO8dxDTl0eF-1">
          <mxGeometry width="50" height="50" relative="1" as="geometry">
            <mxPoint x="110" y="430" as="sourcePoint" />
            <mxPoint x="500" y="310" as="targetPoint" />
          </mxGeometry>
        </mxCell>
        <mxCell id="8gnPzo72ejO8dxDTl0eF-29" value="&lt;font style=&quot;font-size: 14px;&quot;&gt;Один ко многим. Каждый пользователь может иметь множество комментариев, но каждый комментарий имеет конкретного пользователя&lt;/font&gt;" style="text;html=1;strokeColor=none;fillColor=none;align=center;verticalAlign=middle;whiteSpace=wrap;rounded=0;" vertex="1" parent="1">
          <mxGeometry x="-90" y="360" width="200" height="30" as="geometry" />
        </mxCell>
      </root>
    </mxGraphModel>
  </diagram>
</mxfile>
